<svg xmlns="http://www.w3.org/2000/svg" viewBox="0 0 240 180" width="240" height="180">
  <!-- B letter -->
  <path d="M8,8 L8,172 L80,172 C118,172 140,152 140,125 C140,106 128,92 110,86 C124,80 134,66 134,50 C134,24 114,8 78,8 Z
  M48,38 L72,38 C90,38 100,48 100,60 C100,72 90,82 72,82 L48,82 Z
  M48,106 L78,106 C98,106 106,116 106,128 C106,141 96,148 76,148 L48,148 Z" fill="#00AAEF"/>
  <!-- F letter + L bottom bar (shared vertical stroke) -->
  <path d="M152,8 L152,172 L190,172 L190,108 L228,108 L228,82 L190,82 L190,38 L232,38 L232,8 Z" fill="#00AAEF"/>
  <!-- L bottom horizontal bar -->
  <path d="M152,148 L232,148 L232,172 L152,172 Z" fill="#00AAEF"/>
</svg>